# xmcd CD database file
#
# Track frame offsets:
#	150
#	17094
#	32907
#	50828
#	67120
#	81695
#	102926
#	118647
#	136266
#	158789
#	173632
#	192367
#	206961
#	226278
#	238891
#	305595
#
# Disc length: 4423 seconds
#
# Revision: 1
# Processed by: cddbd v1.5.2PL0 Copyright (c) Steve Scherf et al.
# Submitted via: CDex 1.70beta2
#
DISCID=ec114510
DTITLE=Bill Wyman's Rhythm Kings - Just For A Thrill
DYEAR=2005
DGENRE=Rock
TTITLE0=Disappearing Nightly
TTITLE1=Roll 'Em Pete
TTITLE2=Down Home Girl
TTITLE3=Mississippi Flyer
TTITLE4=That's How Heartaches Are Made
TTITLE5=Booty Ooty
TTITLE6=Cadillac Woman
TTITLE7=Town Living
TTITLE8=This Ain't United Nations
TTITLE9=Memphis Woman
TTITLE10=Taxman
TTITLE11=Just For A Thrill
TTITLE12=Cry Baby
TTITLE13=You Don't Know
TTITLE14=Hit The Road Jack
TTITLE15=Georgia On My Mind
EXTD=YEAR: 2005
EXTT0=
EXTT1=
EXTT2=
EXTT3=
EXTT4=
EXTT5=
EXTT6=
EXTT7=
EXTT8=
EXTT9=
EXTT10=
EXTT11=
EXTT12=
EXTT13=
EXTT14=
EXTT15=
PLAYORDER=
